<svg xmlns="http://www.w3.org/2000/svg" version="1.1" xmlns:xlink="http://www.w3.org/1999/xlink" width="512" height="512" x="0" y="0" viewBox="0 0 512 512" style="enable-background:new 0 0 512 512" xml:space="preserve" class=""><g><path d="M405.271 110.891a8 8 0 0 0-8 8V218.6a8 8 0 0 0 8 8h35.083a8 8 0 0 0 8-8v-99.709a8 8 0 0 0-8-8zm27.083 99.709h-19.083v-83.709h19.083zm69.264-156.272h-35.082a8 8 0 0 0-8 8V218.6a8 8 0 0 0 8 8h35.082a8 8 0 0 0 8-8V62.328a8 8 0 0 0-8-8zm-8 156.272h-19.082V70.328h19.082zM293.943 102.081l61.264-79.654a8 8 0 0 1 10.795-1.768l56.021 37.542 44.334-40.934-5.851-.275a8.001 8.001 0 0 1 .753-15.983l25.826 1.216a7.997 7.997 0 0 1 7.494 9.422l-4.622 25.438a8.003 8.003 0 0 1-9.301 6.441 8 8 0 0 1-6.441-9.301l.532-2.928-46.509 42.941a8 8 0 0 1-9.88.768L363.32 38.123l-56.694 73.713a7.989 7.989 0 0 1-6.347 3.123 8.001 8.001 0 0 1-6.336-12.878zm101.145 280.401a9.891 9.891 0 0 0-7.043-2.917h-.001a9.89 9.89 0 0 0-7.042 2.915l-.058.058-11.158-11.158c13.154-18.966 20.876-41.972 20.876-66.75 0-29.928-11.261-57.271-29.761-78.03h18.189a8 8 0 0 0 8-8V89.767a8 8 0 0 0-8-8h-35.083a8 8 0 0 0-8 8v115.672a117.619 117.619 0 0 0-10.181-5.772V157.49a8 8 0 0 0-8-8h-35.083a8 8 0 0 0-8 8v29.745c-.499-.006-.996-.019-1.496-.019a117.4 117.4 0 0 0-24.923 2.671c-15.207-11.079-31.953-19.171-49.656-24.08 27.495-14.796 46.229-43.85 46.229-77.2C244.897 40.3 205.597 1 157.291 1S69.685 40.3 69.685 88.606c0 33.389 18.778 62.472 46.326 77.252C54.438 183.02 7.412 237.518 2.435 303.864c-.38 5.07 1.375 10.104 4.813 13.81s8.327 5.831 13.412 5.831h136.698c9.056 55.8 57.572 98.54 115.89 98.54 24.779 0 47.784-7.722 66.75-20.877l11.158 11.157-.057.057a9.894 9.894 0 0 0-2.917 7.045 9.889 9.889 0 0 0 2.916 7.042l75.449 75.449c5.856 5.857 13.667 9.083 21.994 9.083s16.138-3.226 21.994-9.083c5.857-5.857 9.083-13.668 9.083-21.994s-3.226-16.137-9.083-21.994zM352.007 97.767h19.083V210.6h-19.083zm-61.264 67.723h19.083v27.567a116.463 116.463 0 0 0-19.083-4.537zM85.685 88.606C85.685 49.122 117.807 17 157.291 17s71.606 32.123 71.606 71.607-32.123 71.606-71.606 71.606-71.606-32.123-71.606-71.607zM20.659 307.504c-.844 0-1.381-.388-1.683-.714s-.649-.891-.586-1.73c5.42-72.251 66.433-128.847 138.902-128.847 25.44 0 49.827 6.809 71.37 19.805-42.695 17.591-72.829 59.645-72.829 108.612 0 .961.013 1.919.037 2.875H20.659zm151.174-2.874c0-55.92 45.494-101.415 101.415-101.415 55.92 0 101.414 45.494 101.414 101.415s-45.494 101.415-101.414 101.415c-55.921-.001-101.415-45.495-101.415-101.415zm180.739 86.485a118.519 118.519 0 0 0 7.16-7.16l9.896 9.896-7.16 7.16zm35.471 6.949 9.729 9.729-21.361 21.362-9.729-9.729zm71.177 92.54c-2.834 2.835-6.627 4.396-10.68 4.396s-7.846-1.561-10.681-4.396l-50.135-50.135 21.361-21.362 50.136 50.136c2.835 2.835 4.396 6.628 4.396 10.681s-1.561 7.845-4.397 10.68zM273.247 215.985c-48.879 0-88.646 39.766-88.646 88.646s39.767 88.646 88.646 88.646 88.646-39.766 88.646-88.646-39.767-88.646-88.646-88.646zm0 161.291c-40.057 0-72.646-32.589-72.646-72.646s32.589-72.646 72.646-72.646 72.646 32.589 72.646 72.646-32.589 72.646-72.646 72.646z" fill="#023acd" opacity="1" data-original="#000000" class=""></path></g></svg>