<svg xmlns="http://www.w3.org/2000/svg" version="1.1" xmlns:xlink="http://www.w3.org/1999/xlink" width="512" height="512" x="0" y="0" viewBox="0 0 128 128" style="enable-background:new 0 0 512 512" xml:space="preserve" class=""><g><path d="M122.867 43.353c-18.567-19.142-15.141-16.771-17.5-17.594H69.252L55.527 11.343a1.833 1.833 0 0 0-1.267-.543h-42.9a6.758 6.758 0 0 0-6.75 6.75v77.94a6.758 6.758 0 0 0 6.75 6.75h44.36v8.21a6.758 6.758 0 0 0 6.75 6.75h54.17a6.758 6.758 0 0 0 6.75-6.75V44.6a1.834 1.834 0 0 0-.523-1.247zM107.12 31.89l10.434 10.96H107.12zm-28.34 42.2H59.22v-5.22h19.56a1.75 1.75 0 0 0 1.75-1.75v-5.537l12.8 9.887-12.8 9.893V75.84a1.75 1.75 0 0 0-1.75-1.75zM49.223 53.905H68.78v5.23H49.223a1.749 1.749 0 0 0-1.75 1.75v5.524l-12.8-9.894 12.8-9.887v5.527a1.749 1.749 0 0 0 1.75 1.75zM66.445 27.89H56.01V16.927zM8.11 95.49V17.55a3.254 3.254 0 0 1 3.25-3.25h41.15v15.34a1.75 1.75 0 0 0 1.75 1.75h14.52v19.015H50.973v-7.34a1.762 1.762 0 0 0-2.82-1.384L30.743 55.13a1.76 1.76 0 0 0 0 2.769l17.409 13.46a1.741 1.741 0 0 0 1.071.367 1.761 1.761 0 0 0 1.75-1.75v-7.341H68.78v2.735H57.47a1.75 1.75 0 0 0-1.75 1.75v8.72a1.75 1.75 0 0 0 1.75 1.75h11.31v17.9a3.254 3.254 0 0 1-3.25 3.25H11.36a3.254 3.254 0 0 1-3.25-3.25zm111.78 14.96a3.254 3.254 0 0 1-3.25 3.25H62.47a3.254 3.254 0 0 1-3.25-3.25v-8.21h6.31a6.758 6.758 0 0 0 6.75-6.75v-17.9h4.75v7.34a1.75 1.75 0 0 0 .979 1.571 1.814 1.814 0 0 0 1.842-.187l17.409-13.46a1.762 1.762 0 0 0 0-2.769l-17.41-13.45a1.75 1.75 0 0 0-2.82 1.385v7.35h-4.75c0-2.849.006-10.278 0-13.215-.01-.031 0-22.481 0-22.516a3.432 3.432 0 0 0-.042-.379h31.379V44.6a1.75 1.75 0 0 0 1.753 1.75h14.52z" fill="#023acd" opacity="1" data-original="#000000"></path><path d="M92.607 58.024a1.75 1.75 0 0 0 1.75 1.75h16.415a1.75 1.75 0 0 0 0-3.5H94.357a1.751 1.751 0 0 0-1.75 1.75zM110.772 69.729h-8.207a1.75 1.75 0 0 0 0 3.5h8.207a1.75 1.75 0 0 0 0-3.5zM110.772 83.185H94.357a1.75 1.75 0 0 0 0 3.5h16.415a1.75 1.75 0 0 0 0-3.5zM17.227 44.815h16.416a1.75 1.75 0 0 0 0-3.5H17.227a1.75 1.75 0 0 0 0 3.5zM17.227 58.27h8.208a1.75 1.75 0 0 0 0-3.5h-8.208a1.75 1.75 0 0 0 0 3.5zM33.643 68.226H17.227a1.75 1.75 0 0 0 0 3.5h16.416a1.75 1.75 0 0 0 0-3.5z" fill="#023acd" opacity="1" data-original="#000000"></path></g></svg>