<svg xmlns="http://www.w3.org/2000/svg" version="1.1" xmlns:xlink="http://www.w3.org/1999/xlink" width="512" height="512" x="0" y="0" viewBox="0 0 64 64" style="enable-background:new 0 0 512 512" xml:space="preserve" class=""><g><path d="M6 49h20.59a1 1 0 1 0 0-2H6c-1.103 0-2-.897-2-2V15h43a1 1 0 1 0 0-2H4v-2c0-1.103.897-2 2-2h44c1.103 0 2 .897 2 2v6h-8c-2.206 0-4 1.794-4 4v4c.022 1.313 1.977 1.316 2 0v-4c0-1.103.897-2 2-2h8v6c.012 1.308 1.983 1.317 2 0V11c0-2.206-1.794-4-4-4H6c-2.206 0-4 1.794-4 4v34c0 2.206 1.794 4 4 4z" fill="#023acd" opacity="1" data-original="#000000"></path><path d="M9 11c.025 1.314 1.975 1.313 2 0-.025-1.314-1.975-1.314-2 0zM5 11c.025 1.314 1.975 1.313 2 0-.025-1.314-1.975-1.314-2 0zM13 11c.025 1.314 1.975 1.313 2 0-.025-1.314-1.975-1.314-2 0zM56 27H34c-3.309 0-6 2.691-6 6v12c0 3.309 2.691 6 6 6h7v3c0 1.654 1.346 3 3 3h2c1.654 0 3-1.346 3-3v-3h7c3.309 0 6-2.691 6-6V33c0-3.309-2.691-6-6-6zm-9 27c0 .551-.448 1-1 1h-2c-.552 0-1-.449-1-1v-3h4zm13-9c0 2.206-1.794 4-4 4H34c-2.206 0-4-1.794-4-4V33c0-2.206 1.794-4 4-4h22c2.206 0 4 1.794 4 4z" fill="#023acd" opacity="1" data-original="#000000"></path><path d="M40.64 43.232 35.563 39l5.079-4.232c.999-.839-.27-2.37-1.282-1.536l-6 5c-.474.376-.474 1.16 0 1.536l6 5c1.005.831 2.284-.692 1.282-1.536zM50.64 33.232c-1.01-.833-2.28.694-1.28 1.536L54.436 39l-5.078 4.232c-.996.83.276 2.378 1.282 1.536l6-5c.474-.376.474-1.16 0-1.536l-6-5zM48.394 31.081a1 1 0 0 0-1.313.525l-6 14a1 1 0 1 0 1.838.788l6-14a1 1 0 0 0-.525-1.313zM14 20c1.313-.022 1.316-1.978 0-2H8c-1.313.022-1.316 1.978 0 2zM37 23a1 1 0 0 0-1-1H8a1 1 0 1 0 0 2h28a1 1 0 0 0 1-1zM30 27a1 1 0 0 0-1-1H8a1 1 0 1 0 0 2h21a1 1 0 0 0 1-1zM22 32c1.31-.02 1.318-1.978 0-2H8c-1.31.02-1.318 1.978 0 2zM26 35a1 1 0 0 0-1-1H8a1 1 0 1 0 0 2h17a1 1 0 0 0 1-1zM19 39a1 1 0 0 0-1-1H8a1 1 0 1 0 0 2h10a1 1 0 0 0 1-1zM8 42c-1.313.022-1.316 1.978 0 2h6a1 1 0 1 0 0-2zM49 20h-4c-1.313.022-1.315 1.978 0 2h4c1.313-.022 1.315-1.978 0-2zM45 23c-1.313.022-1.315 1.978 0 2h4c1.313-.022 1.315-1.978 0-2z" fill="#023acd" opacity="1" data-original="#000000"></path></g></svg>