<svg xmlns="http://www.w3.org/2000/svg" version="1.1" xmlns:xlink="http://www.w3.org/1999/xlink" width="512" height="512" x="0" y="0" viewBox="0 0 512 512" style="enable-background:new 0 0 512 512" xml:space="preserve" class=""><g><path fill-rule="evenodd" d="M154.961 136.506c.038 4.171 6.8 8.666 17.7 12.566 13.188 4.715 31.553 7.631 51.968 7.631s38.78-2.916 51.968-7.631c10.908-3.9 17.667-8.4 17.705-12.566-.038-4.172-6.8-8.667-17.705-12.566-13.188-4.715-31.553-7.631-51.968-7.631s-38.78 2.916-51.967 7.631c-10.909 3.9-17.668 8.394-17.706 12.566zm19.792 36.42a7.272 7.272 0 0 1-4.547 13.814 95.86 95.86 0 0 1-7.395-2.785A7.259 7.259 0 0 1 168.5 170.6c2.087.889 4.1 1.621 6.257 2.33zm-19.792 9.779c0 4.181 6.766 8.691 17.706 12.6 13.187 4.714 31.552 7.631 51.967 7.631s38.78-2.917 51.967-7.631c10.94-3.91 17.707-8.42 17.707-12.6v-25.793a71.811 71.811 0 0 1-12.818 5.93c-14.662 5.242-34.773 8.484-56.856 8.484s-42.194-3.242-56.856-8.484a71.8 71.8 0 0 1-12.817-5.93zm19.792 36.415a7.272 7.272 0 0 1-4.547 13.814 95.86 95.86 0 0 1-7.395-2.785 7.259 7.259 0 1 1 5.689-13.359c2.086.889 4.1 1.621 6.257 2.33zm-19.792 9.78c0 4.18 6.766 8.69 17.706 12.6 13.187 4.714 31.552 7.63 51.967 7.63s38.78-2.916 51.967-7.63c10.94-3.911 17.707-8.421 17.707-12.6v-25.824a71.951 71.951 0 0 1-12.818 5.93c-14.662 5.241-34.773 8.483-56.856 8.483s-42.194-3.242-56.856-8.483a71.94 71.94 0 0 1-12.817-5.93zm19.792 36.415a7.272 7.272 0 0 1-4.547 13.814c-2.467-.813-5-1.767-7.395-2.786a7.259 7.259 0 0 1 5.685-13.359c2.087.89 4.1 1.621 6.257 2.331zm-19.792 9.778c0 4.181 6.766 8.691 17.706 12.6 13.187 4.715 31.552 7.631 51.967 7.631s38.78-2.916 51.967-7.631c10.94-3.91 17.707-8.42 17.707-12.6v-25.824a71.881 71.881 0 0 1-12.818 5.931c-14.662 5.241-34.773 8.483-56.856 8.483s-42.194-3.242-56.856-8.483a71.87 71.87 0 0 1-12.817-5.931v25.823zm153.9 0c0 11.011-10.459 20.257-27.37 26.3-14.662 5.242-34.773 8.484-56.856 8.484s-42.194-3.242-56.856-8.484c-14.38-5.14-24.094-12.595-26.68-21.482-1.94-4.119-.69-127.785-.69-143.37V136.306c.148-10.908 10.577-20.064 27.366-26.066 14.662-5.241 34.773-8.484 56.856-8.484s42.2 3.243 56.857 8.484c16.873 6.032 27.323 15.251 27.368 26.23V275.092zm8.9 137.732H131.506a8.246 8.246 0 0 0 0 16.491h186.258a8.246 8.246 0 0 0 0-16.491zm-66.004-34.065h-54.246v19.512h54.246zM53.9 357.83a7.277 7.277 0 0 1 0-14.553c4.586 0 8.614 2.093 8.614 7.276s-4.028 7.277-8.614 7.277zm389.352-13.21a7.256 7.256 0 1 1-10.347 10.18l-29.862-30.417a7.235 7.235 0 0 1-2.082-5.088l-.021-35.928a7.277 7.277 0 1 1 14.553 0v32.983l27.758 28.275zM460 267.507a73.233 73.233 0 1 0 21.449 51.783A73.006 73.006 0 0 0 460 267.507zm-127.218 96.7a87.206 87.206 0 0 1-10.99-29.453H30.552v29.453zm100.487-129.074a87.795 87.795 0 1 1-89.621 143.627H266.31v19.512h51.454a22.8 22.8 0 0 1 0 45.6H131.506a22.8 22.8 0 0 1 0-45.6h51.453V378.76H24.115A8.119 8.119 0 0 1 16 370.644V76.248a8.179 8.179 0 0 1 8.115-8.116h401.039a8.12 8.12 0 0 1 8.115 8.116zm-25.052-3.627a87.784 87.784 0 0 0-87.779 88.7H30.552V82.685h388.165v149.444a88.783 88.783 0 0 0-10.5-.623z" fill="#023acd" opacity="1" data-original="#000000" class=""></path></g></svg>