<svg xmlns="http://www.w3.org/2000/svg" version="1.1" xmlns:xlink="http://www.w3.org/1999/xlink" width="512" height="512" x="0" y="0" viewBox="0 0 512 512" style="enable-background:new 0 0 512 512" xml:space="preserve" class=""><g><path d="M214.784 422.644h141.078a48.541 48.541 0 0 0 35.47-14.693L495 304.287a38.942 38.942 0 1 0-55.073-55.072L382.9 306.239a37.786 37.786 0 0 0-35.627-25.34h-93.417c-22.164-13.611-68.288-15.552-106.463-4.262-19.207 5.68-43.58 16.821-56.792 38.195l-1.588-2.159a10.921 10.921 0 0 0-15.249-2.321l-63.685 46.856a10.919 10.919 0 0 0-2.322 15.249l99.4 135.1a10.834 10.834 0 0 0 7.145 4.314 11.061 11.061 0 0 0 1.668.127 10.82 10.82 0 0 0 6.436-2.12l63.686-46.857a10.919 10.919 0 0 0 2.321-15.249l-4.961-6.742 20.435-14.849a17.461 17.461 0 0 1 10.897-3.537zm-98.607 76.924L18.07 366.227 80 320.665l98.1 133.343zm60.166-68.2L98.418 325.456c10.328-21.012 33.982-31.871 52.378-37.311 38.476-11.38 81.7-7.263 97.934 3.723a6 6 0 0 0 3.363 1.031h95.178a25.726 25.726 0 0 1 0 51.452h-95.178a6 6 0 1 0 0 12h95.178a37.767 37.767 0 0 0 37.629-35.143l63.507-63.508a26.943 26.943 0 0 1 38.1 38.1L382.846 399.467a36.458 36.458 0 0 1-26.984 11.177H214.784a29.538 29.538 0 0 0-17.951 5.834zm-116.185-69.52A16.943 16.943 0 1 0 77.1 344.906a16.962 16.962 0 0 0-16.942 16.942zm21.885 0a4.943 4.943 0 1 1-4.942-4.942 4.948 4.948 0 0 1 4.942 4.942zM187.377 98.721a6 6 0 0 0-4.567 5.826v43.935a6 6 0 0 0 4.567 5.827l24.149 5.937a103.233 103.233 0 0 0 4.8 11.562l-12.886 21.283a6 6 0 0 0 .891 7.348l31.069 31.068a6 6 0 0 0 7.35.889l21.282-12.882a103.425 103.425 0 0 0 11.561 4.8l5.939 24.15a6 6 0 0 0 5.826 4.567h43.935a6 6 0 0 0 5.826-4.567l5.938-24.149a103.311 103.311 0 0 0 11.562-4.8L375.9 232.4a6 6 0 0 0 7.35-.89l31.067-31.067a6 6 0 0 0 .89-7.348l-12.882-21.283a103.323 103.323 0 0 0 4.8-11.562l24.15-5.937a6 6 0 0 0 4.567-5.827v-43.939a6 6 0 0 0-4.567-5.826l-24.149-5.939a103.674 103.674 0 0 0-4.8-11.561l12.882-21.283a6 6 0 0 0-.89-7.35l-31.069-31.066a6 6 0 0 0-7.35-.89l-21.282 12.882a103.155 103.155 0 0 0-11.562-4.8l-5.938-24.15A6 6 0 0 0 331.291 0h-43.935a6 6 0 0 0-5.826 4.567l-5.938 24.15a103.02 103.02 0 0 0-11.562 4.8l-21.282-12.885a6 6 0 0 0-7.35.89l-31.067 31.066a6 6 0 0 0-.891 7.35l12.883 21.283a103.392 103.392 0 0 0-4.8 11.561zm40.938-20.862-12.173-20.111 24.415-24.415 20.112 12.174a6 6 0 0 0 5.916.169 90.978 90.978 0 0 1 15.8-6.557 6 6 0 0 0 4.061-4.3L292.06 12h34.527l5.613 22.817a6 6 0 0 0 4.061 4.3 91.059 91.059 0 0 1 15.8 6.557 6.006 6.006 0 0 0 5.917-.169l20.111-12.174 24.416 24.415-12.174 20.113a6 6 0 0 0-.169 5.916 91.12 91.12 0 0 1 6.556 15.8 6 6 0 0 0 4.3 4.061l22.817 5.61v34.529l-22.817 5.61a6 6 0 0 0-4.3 4.06 91.158 91.158 0 0 1-6.556 15.8 6 6 0 0 0 .169 5.917l12.174 20.111-24.416 24.427-20.111-12.174a6 6 0 0 0-5.916-.168 91.084 91.084 0 0 1-15.8 6.556 6 6 0 0 0-4.061 4.3l-5.611 22.817h-34.53l-5.611-22.817a6 6 0 0 0-4.059-4.3 91.212 91.212 0 0 1-15.8-6.557 6 6 0 0 0-5.917.168L240.557 219.7l-24.415-24.42 12.173-20.111a6 6 0 0 0 .169-5.916 91.116 91.116 0 0 1-6.555-15.8 6 6 0 0 0-4.3-4.06l-22.817-5.61V109.25l22.817-5.61a6 6 0 0 0 4.3-4.06 91.163 91.163 0 0 1 6.555-15.8 6 6 0 0 0-.169-5.921zm81.008 117.005a68.329 68.329 0 1 0-48.353-20 68.172 68.172 0 0 0 48.353 20zm-36.316-25.239a37.3 37.3 0 0 1 72.632 0 56.457 56.457 0 0 1-72.632 0zm46.35-44.933a14.19 14.19 0 1 1-20.067-20.068 14.19 14.19 0 1 1 20.067 20.069zm-49.9-38.046a56.383 56.383 0 0 1 85.551 72.916 49.592 49.592 0 0 0-26.656-26.918 26.191 26.191 0 1 0-38.055 0 49.583 49.583 0 0 0-26.656 26.918 56.384 56.384 0 0 1 5.816-72.916z" fill="#023acd" opacity="1" data-original="#000000"></path></g></svg>